<svg xmlns="http://www.w3.org/2000/svg" width="40" height="40" viewBox="0 0 40 40">
    <g fill="#444" fill-rule="evenodd">
        <rect width="1.006" height="29.136" x="19.497" y="5.42" rx=".503"/>
        <path d="M27.586 15.675l4.836 1.296a.519.519 0 0 1-.268 1.001l-5.009-1.342a.519.519 0 0 1-.384-.48.519.519 0 0 1-.223-.572l1.342-5.008a.519.519 0 0 1 1.002.268l-1.296 4.837zm-15.178.025l-4.836 1.296a.519.519 0 0 0 .268 1.002l5.008-1.342a.519.519 0 0 0 .384-.48.519.519 0 0 0 .224-.572l-1.342-5.009a.519.519 0 1 0-1.002.269l1.296 4.836zm7.59-4.933l-3.541-3.541a.519.519 0 1 0-.733.733l3.666 3.667c.16.16.407.198.608.092.2.105.446.068.607-.092l3.667-3.667a.519.519 0 0 0-.734-.733l-3.54 3.54v.001zM20 29.211l-3.54 3.54a.519.519 0 1 1-.734-.733l3.667-3.666a.519.519 0 0 1 .607-.093.519.519 0 0 1 .607.093l3.667 3.666a.519.519 0 1 1-.733.734L20 29.21v.001zm-7.589-4.796l-1.296 4.837a.519.519 0 1 0 1.002.269l1.342-5.009a.519.519 0 0 0-.224-.572.519.519 0 0 0-.384-.48l-5.008-1.342a.519.519 0 1 0-.269 1.001l4.837 1.296zm15.175 0l1.297 4.837a.519.519 0 1 1-1.002.269l-1.343-5.009a.519.519 0 0 1 .223-.572.52.52 0 0 1 .385-.48l5.01-1.342a.519.519 0 0 1 .27 1.001l-4.84 1.296z"/>
        <path d="M7.357 12.769l.018-.031a.485.485 0 0 1 .662-.178l24.429 14.084c.232.134.311.43.177.661l-.018.032a.485.485 0 0 1-.662.177L7.534 13.43a.484.484 0 0 1-.177-.661z"/>
        <path d="M32.643 12.769l-.018-.031a.485.485 0 0 0-.662-.178L7.534 26.644a.484.484 0 0 0-.177.661l.018.032c.133.231.43.31.662.177L32.466 13.43a.484.484 0 0 0 .177-.661z"/>
    </g>
</svg>
